<svg width="133" height="117" viewBox="0 0 133 117" fill="none" xmlns="http://www.w3.org/2000/svg">
<path d="M42 1L20.5 4.5M42 1L38.5 16.7553M42 1L50.5 7M20.5 4.5L1 26.5M20.5 4.5L38.5 16.7553M1 26.5L4.5 51M1 26.5L25 33.5M4.5 51L25 33.5M4.5 51H26.5M4.5 51L12 62.5L26.5 67.5M25 33.5H35.5M35.5 33.5L44 28M35.5 33.5L42 40M44 28V20.5M44 28L42 40M44 20.5L38.5 16.7553M44 20.5H50.5M44 20.5L50.5 7M50.5 7L55.5 12.5M50.5 7L65 3L80.5 7M55.5 12.5L50.5 20.5M55.5 12.5L65 7L76.5 12.5M50.5 20.5L50.1 22.5M48.5 30.5L52 43M48.5 30.5L44 37.0769M48.5 30.5L50.1 22.5M48.5 30.5L55.5 31M42 40L37 45.5M42 40L46 48.5M42 40L44 37.0769M37 45.5L26.5 51M37 45.5L39.5 56.5M26.5 51V67.5M26.5 67.5L30.5 70.5M39.5 56.5L30.5 70.5M39.5 56.5L46 48.5M30.5 70.5L42 72M46 48.5L48.5 53.5M42 72L48.5 53.5M42 72L57.5325 55.4481M42 72L39.5 87M42 72H48.5M48.5 53.5L52 43M52 43L44 37.0769M52 43L53.1111 45.5M57.5325 55.4481H74M57.5325 55.4481L53.1111 45.5M80.5 7L76.5 12.5M80.5 7L89 1M80.5 7L88 20M76.5 12.5L81.2143 21.5M89 1L112 4.5M89 1L94.5 16.7553M112 4.5L94.5 16.7553M112 4.5L131.5 26.5M94.5 16.7553L88 20M88 20V21.5M131.5 26.5L127.5 51M131.5 26.5L106.5 33.5M127.5 51L120.5 62L104 67.5M127.5 51H104M127.5 51L106.5 33.5M104 67.5V51M104 67.5C105.2 65.9 103.5 68.1667 102.5 69.5M104 51L96 45.5L94.5 44.125M106.5 33.5H96M96 33.5L90 27.5M96 33.5L90 40M90 27.5V40M90 27.5L88 21.5M90 40L94.5 44.125M90 40L84.963 48.5M90 40L86.5 37.0769M94.5 44.125L93.5 57.5M93.5 57.5L102.5 69.5M93.5 57.5L84.963 48.5M102.5 69.5V72H90M84.963 48.5L82.2812 53.0254M90 72L82 53.5L82.2812 53.0254M90 72L86.5 70.5M90 72L93.5 87M74 55.4481L86.5 70.5M74 55.4481L79.5 45.5M86.5 70.5L83 73M39.5 87L32 96M39.5 87L42 98M39.5 87L48.5 81M32 96H26.5M32 96L42 98M32 96V106.5M26.5 96L20.5 83H18.5V98M26.5 96L18.5 98M26.5 96L32 106.5M18.5 98L30.5 105.696L32 106.5M32 106.5L42 98M42 98L48.5 81M48.5 81V72M48.5 81L52.5 85M48.5 72L55.5 67.5H76.5L83 73M83 73L83.5 81M93.5 87L83.5 81M93.5 87L89 98M93.5 87L100 96M83.5 81L89 98M83.5 81L79.5 85M89 98L100 96M89 98L100.5 106M100 96L100.5 106M100 96H104H106.5M100.5 106L106.5 96M100.5 106L112.5 99.5M106.5 96L112 83H113.5L112.5 99.5M106.5 96L112.5 99.5M79.5 85V104.597M79.5 85L73 79H59L52.5 85M79.5 85L73 89.5V99L79.5 104.597M79.5 104.597H52.5M79.5 104.597L74.5 114M52.5 104.597L59 98V89.5L52.5 85M52.5 104.597V85M52.5 104.597L57.5 114M57.5 114C64.1974 116.656 67.9221 116.704 74.5 114M57.5 114C63.892 109.996 67.6311 110.261 74.5 114M79.5 45.5L82.2812 53.0254M79.5 45.5L80.5 44.2967M79.5 45.5H71.5M86.5 37.0769L83 30.5M86.5 37.0769L80.5 44.2967M83 30.5L80.5 44.2967M83 30.5L82 23M83 30.5H76.5M82 23H71.5M82 23L81.2143 21.5M82 23C69.445 14.4144 62.4557 13.8301 50.1 22.5M76.5 30.5L71.5 23M76.5 30.5L71.5 45.5M71.5 23H60M81.2143 21.5H88M60 23L55.5 31M60 23L50.1 22.5M55.5 31L60 45.5M60 45.5H71.5M60 45.5H53.1111" stroke="black"/>
</svg>
